<!DOCTYPE svg PUBLIC "-//W3C//DTD SVG 20010904//EN" "http://www.w3.org/TR/2001/REC-SVG-20010904/DTD/svg10.dtd">
<svg version="1.0" xmlns="http://www.w3.org/2000/svg" width="497px" height="299px" viewBox="0 0 4970 2990" preserveAspectRatio="xMidYMid meet">
<g id="layer1" fill="#000000" stroke="none">
 <path d="M1695 2925 c-27 -7 -107 -42 -176 -76 l-125 -62 -122 -187 c-123 -188 -149 -216 -260 -283 -7 -5 -106 -35 -218 -67 l-205 -59 -104 -77 -104 -77 -60 -146 c-57 -138 -61 -152 -66 -251 l-6 -105 105 -120 c104 -118 106 -120 188 -152 130 -51 129 -50 178 -148 34 -68 122 -215 145 -242 1 -2 108 -41 239 -88 l238 -84 446 -66 446 -66 337 16 338 16 147 54 c82 31 207 88 283 130 l136 74 52 84 53 84 101 7 c58 4 106 3 111 -2 5 -5 20 -134 34 -287 22 -245 28 -283 49 -326 24 -45 59 -71 74 -52 4 4 36 107 71 228 35 121 68 226 74 233 8 11 38 12 145 7 80 -4 141 -12 147 -19 7 -6 31 -68 54 -138 41 -126 43 -129 102 -183 34 -30 65 -55 69 -55 5 0 12 17 18 38 32 127 33 140 22 344 -6 112 -13 274 -17 361 l-6 159 -61 81 c-33 45 -64 88 -69 94 -7 9 7 23 51 50 62 39 68 47 51 73 -8 13 -19 10 -75 -18 -36 -17 -70 -32 -75 -32 -21 0 -8 16 35 45 45 30 60 66 28 64 -10 0 -45 -13 -78 -28 l-59 -27 -57 39 -57 40 -117 -21 c-103 -19 -125 -27 -191 -68 l-75 -47 -56 12 c-75 15 -85 14 -81 -5 2 -9 23 -24 47 -33 60 -22 66 -41 9 -30 -62 12 -68 11 -68 -10 0 -20 19 -31 55 -31 34 0 47 -21 31 -50 -11 -24 -16 -25 -82 -22 -38 2 -73 8 -79 13 -11 10 -35 86 -35 109 0 9 53 55 119 104 110 82 120 93 151 156 33 68 33 68 21 145 -11 75 -14 80 -72 146 -60 67 -60 69 -37 78 12 5 79 36 148 68 166 79 180 98 164 218 l-7 47 -63 -7 c-51 -5 -112 -29 -312 -119 l-249 -113 -124 63 c-123 62 -125 63 -210 63 l-86 1 -7 -46 c-13 -98 -17 -93 106 -163 l112 -65 -75 -68 c-41 -38 -110 -102 -154 -142 l-80 -74 -140 -6 c-77 -4 -258 -18 -403 -32 -145 -14 -270 -24 -280 -22 -9 2 90 69 223 152 213 132 251 160 342 249 95 93 102 104 108 149 6 43 4 50 -17 68 -41 35 -59 33 -173 -18 -108 -48 -526 -312 -758 -479 l-97 -70 -172 32 c-147 28 -175 36 -191 56 -17 21 -18 25 -3 34 9 5 186 84 394 175 l377 165 9 49 c5 27 5 65 0 89 l-9 42 -104 3 -103 3 -232 -134 c-127 -74 -330 -190 -451 -258 -149 -83 -268 -159 -367 -233 l-148 -111 -31 -95 c-17 -52 -35 -99 -39 -103 -10 -11 -117 12 -130 28 -6 7 -17 59 -24 116 l-14 104 70 118 c39 64 72 117 74 117 23 0 369 52 377 57 7 3 71 44 142 89 129 83 131 84 228 213 l98 129 164 108 c159 105 165 111 181 157 42 125 -32 191 -171 152z m1895 -972 c38 -50 41 -57 30 -83 -8 -19 -42 -47 -110 -89 -54 -33 -104 -61 -111 -61 -21 0 -169 44 -169 51 0 15 201 224 230 239 48 25 80 11 130 -57z m624 -705 c-7 -10 -34 -10 -34 0 0 4 5 13 12 20 9 9 14 9 19 0 4 -7 5 -16 3 -20z m-184 -200 c0 -11 -5 -28 -11 -39 -8 -16 -13 -18 -25 -8 -17 14 -19 60 -2 77 15 15 38 -3 38 -30z m390 0 c0 -11 -5 -28 -11 -39 -8 -16 -13 -18 -25 -8 -17 14 -19 60 -2 77 15 15 38 -3 38 -30z"/>
 </g>

</svg>