<?xml version="1.0" encoding="utf-8"?>

<!DOCTYPE svg PUBLIC "-//W3C//DTD SVG 1.1//EN" "http://www.w3.org/Graphics/SVG/1.1/DTD/svg11.dtd">
<svg version="1.1" id="Layer_1" xmlns="http://www.w3.org/2000/svg" xmlns:xlink="http://www.w3.org/1999/xlink" x="0px" y="0px"
	 viewBox="0 0 903.9556 1652.3057" enable-background="new 0 0 903.9556 1652.3057" xml:space="preserve">
<g>
	<path fill="#8995B4" d="M827.1133,694.0003c-15.5445-31.6873-37.2493-15.3838-43.3358-19.1238
		c1.2492-7.4478,9.8345-157.1573-30.0384-227.8228c-4.8091-8.5229-12.0707-10.8471-16.9204-33.3878
		c-1.5591-7.2463-5.3655-45.5314-3.4396-58.8597c6.3268-43.7856,22.7415-44.3307,24.4857-80.8526
		c-0.779-38.8765,3.2768-64.4226-11.9446-84.1755c-4.4014-2.8918-2.4594-8.4721-1.6452-12.6869
		c3.9638-23.1995,11.5445-57.5639,11.1604-64.5289c-13.6996-2.3407-62.3666,33.9104-69.8207,55.8533
		c-3.0779-0.0469-63.4211-7.7505-87.7827-0.6445c-1.9929,0.4155-4.6813,1.3737-6.2162-0.4665
		c-12.5742-15.0708-21.8386-40.1908-40.6646-55.1918c-2.5272-2.0098-9.9816-8.7348-13.4926-7.0474
		c-8.9726,4.3115-1.7293,54.9755-6.7335,75.9013c-10.9063,45.6335-13.5469,41.2482-14.0421,80.5202
		c-0.8841,70.1208,10.582,60.4565,3.2379,106.2116c-17.0652,106.318-131.0295,94.4297-115.8366,362.3781
		c5.5285,95.0987,35.3704,186.6974,56.8454,253.9769c0,0,0.7802,0.6699,0.7802,0.6699c0.3732,0,1.1279,0.017,1.5096,0.0255
		c3.9265-2.6205,8.8622-1.2297,13.2806-1.5519c26.1625-1.0856,48.5599,8.5059,70.4228,21.7187
		c117.1456,70.8112,116.6337,227.0805-45.4984,293.7169c-73.9299,30.3953-114.9097,54.0363-165.9906,84.2462
		c-34.3889,20.2587-137.7104,76.86-173.3263,120.0513c-7.6373,8.5582-23.94,33.1698-20.9641,44.5486
		c4.7793,18.1267,45.0262,4.7192,61.162-2.5103c102.2095-45.7559,145.6539-90.491,224.1591-132.9078
		c80.2877-43.3744,226.8452-81.4067,286.3471-212.0828c36.7963-80.8555-2.5909-159.9431-24.5513-167.7291
		c-0.2375-2.0608,0.9668-3.5533,3.1718-3.8247c40.0963-4.9272,74.5274-39.4517,97.3742-70.4907
		C834.9731,895.2425,853.8333,748.5739,827.1133,694.0003z"/>
	<path fill="#0A278D" d="M792.0329,348.4109c-59.6364-62.4187-180.5197-49.1974-162.8783-49.5775
		c-65.9556,1.4211-32.4173-0.7274-98.2731-19.0389c-4.7067-2.4848-10.0665-3.2904-14.8834-5.5124l0.0678-0.687
		c-4.4543,0.0433-19.5338-7.1648-28.3167-9.8968c-0.0848-2.4425,0.1102-4.9018,1.0858-7.1668
		c2.8176-7.2264,1.8656-53.6844,1.5053-61.5065c-1.2594-27.3399-4.687-27.6787-6.6194-35.8755
		c-3.2464-9.37-1.9726-34.8821-2.5442-45.6171c-0.8245-15.485-29.9245-70.6671-37.3337-79.9255
		c-0.5573-0.6964-8.1013-8.7565-8.911-7.272c-49.6432,88.8413-32.2814,77.1035-58.4557,73.842
		c-61.4779-7.6607-67.0974,0.1068-78.175,8.1061c-7.3821-3.5993-37.6645-25.8147-40.7492-27.5195
		c-28.0403-18.6938-45.046-24.5984-45.1252-22.55c-1.7971,46.4491,33.0682,147.4554,35.1782,162.5158
		c5.1194,36.54-2.8011,77.775-28.9705,117.6407c-28.4211,46.3368-234.617,242.6442-82.1091,512.974
		c18.6454,30.7256,60.6631,72.8672,62.6376,80.6504c-0.3403-1.3414-33.1937,16.6285-35.7341,18.2429
		c-80.1062,50.9048-112.5558,114.8168-92.6747,230.7955c22.3965,130.6523,132.4944,203.4606,138.2906,312.3422
		c0.3007-1.5997-3.4454,37.8861-7.4055,59.5345c-2.5584,13.9861-2.8529,30.8188,0.9711,44.5717
		c0.1516-0.8199,0.3031-1.64,0.4547-2.46c-2.2623,12.2402,37.0087,53.6772,57.7943,15.1323
		c15.2969-25.5446,14.3799-55.2516,15.8418-66.7932c0.2432-54.5682,0.3147-90.2236-23.8898-137.411
		c-24.2324-48.8365-144.2427-192.5786-107.8477-314.6045c12.1187-44.1241,101.2072-140.4835,176.1164-119.1099
		c16.6097,4.2783,45.396,21.5677,65.9137,26.2673c28.8599,6.6105,34.199-2.7163,53.5779-9.2299
		c6.6487-2.1371,13.2212-5.3682,20.3619-5.2156c-2.0439-6.4028-4.9272-12.5512-6.335-19.1237
		c-0.3647-0.2545-0.7123-0.475-1.0431-0.6785c-0.511-3.4587-18.2635-56.983-20.1075-69.7358
		c-0.1441-0.1018-0.441-0.2968-0.5936-0.3986c-0.8056-4.3506-2.7477-8.4806-2.6544-12.9669
		c-0.212,0.5003-0.4071,1.0092-0.5852,1.5434c-0.7632-7.9971-4.6727-15.5194-4.342-23.6099
		c-0.2374,0.8565-0.4664,1.7131-0.6784,2.5951c-2.0608-12.0595-5.1986-23.9238-7.1661-36.0002
		c-0.1526-0.0763-0.4664-0.2458-0.6191-0.3307c-0.4882-8.0787-2.4558-9.0734-2.6375-20.6841
		c-0.2968,1.713-0.6106,3.4346-0.9074,5.1647c0.5003-5.1816-0.5258-10.304-1.4841-15.3668
		c-7.7051-51.7991-11.9187-80.5929-6.7336-172.597c0.2545,1.2806,0.5004,2.5781,0.7463,3.8926
		c-0.8565-9.1422,1.6198-18.1061,2.6121-27.1209c20.8865-104.433,59.123-131.9046,70.584-147.6218
		c43.7645-56.0393-5.0264-55.502,56.8878-47.9493c24.1557-0.1762,27.7672,2.6953,59.6779-9.3624
		c7.7937-2.7224,15.316-6.5809,23.5506-7.7683c0.1865-0.3731,0.3901-0.7462,0.6106-1.0938
		c11.6118-1.1139,0.2244-1.6396,22.1852-2.3322c48.1874,0.558,105.4355,12.1082,106.83,22.7448
		c-15.6417,9.4634-3.7733,24.8627-5.7244,21.4135c1.2721,1.5096,2.3491,3.1718,3.2481,4.9528
		c21.5786,10.7732,39.3585-2.9491,46.5076-23.7457c1.0855-3.4856,3.952-6.0298,5.1138-9.4899
		c2.0862-5.9108,4.1639-11.8389,5.8092-17.894C807.3531,365.6785,801.6299,357.2245,792.0329,348.4109z"/>
</g>
</svg>
